<svg width="18" height="15" viewBox="0 0 18 15" fill="none" xmlns="http://www.w3.org/2000/svg">
<path d="M9.02779 3.36742L9.09447 3.30538L9.18862 3.39298L9.86895 2.64222C10.5627 1.87662 11.6167 1.375 12.8151 1.375C14.9944 1.375 16.6357 3.00202 16.6357 4.85999C16.6357 5.93262 16.1022 6.91133 15.2255 7.56312C14.6116 8.01957 12.8721 9.64168 11.3561 11.0775C10.5821 11.8106 9.84301 12.5176 9.29763 13.0412C9.22243 13.1134 9.1509 13.1821 9.08345 13.2469L2.96997 7.54131L2.94085 7.51413L2.90966 7.48935C2.09016 6.83841 1.59545 5.89336 1.59545 4.85999C1.59545 3.00202 3.23681 1.375 5.41605 1.375C6.60564 1.375 7.65306 1.86931 8.347 2.62553L9.02779 3.36742Z" stroke="#292D32" stroke-width="2"/>
</svg>
