<svg width="21" height="19" viewBox="0 0 21 19" fill="none" xmlns="http://www.w3.org/2000/svg">
<path d="M13.6875 11.1961C13.5383 11.1961 13.3952 11.2498 13.2898 11.3452C13.1843 11.4407 13.125 11.5701 13.125 11.7051C13.125 11.8401 13.1843 11.9695 13.2898 12.0649C13.3952 12.1604 13.5383 12.214 13.6875 12.214H16.3125C16.4617 12.214 16.6048 12.1604 16.7102 12.0649C16.8157 11.9695 16.875 11.8401 16.875 11.7051C16.875 11.5701 16.8157 11.4407 16.7102 11.3452C16.6048 11.2498 16.4617 11.1961 16.3125 11.1961H13.6875ZM1.503 5.93722C1.503 5.26234 1.79931 4.6151 2.32676 4.13789C2.85421 3.66067 3.56958 3.39258 4.3155 3.39258H16.6875C17.4334 3.39258 18.1488 3.66067 18.6762 4.13789C19.2037 4.6151 19.5 5.26234 19.5 5.93722V13.0622C19.5 13.7371 19.2037 14.3843 18.6762 14.8616C18.1488 15.3388 17.4334 15.6069 16.6875 15.6069H4.31625C3.57033 15.6069 2.85496 15.3388 2.32751 14.8616C1.80006 14.3843 1.50375 13.7371 1.50375 13.0622V5.93722H1.503ZM4.3155 4.41044C3.86795 4.41044 3.43872 4.57129 3.12226 4.85762C2.80579 5.14395 2.628 5.53229 2.628 5.93722V6.44615H18.375V5.93722C18.375 5.53229 18.1972 5.14395 17.8807 4.85762C17.5643 4.57129 17.1351 4.41044 16.6875 4.41044H4.3155ZM2.628 13.0622C2.628 13.4672 2.80579 13.8555 3.12226 14.1418C3.43872 14.4282 3.86795 14.589 4.3155 14.589H16.6875C17.1351 14.589 17.5643 14.4282 17.8807 14.1418C18.1972 13.8555 18.375 13.4672 18.375 13.0622V7.46401H2.62875V13.0622H2.628Z" fill="black"/>
</svg>
