<svg width="37" height="33" viewBox="0 0 37 33" fill="none" xmlns="http://www.w3.org/2000/svg">
<path d="M31.2188 9.2811H26.1486C26.205 9.23856 26.2628 9.19731 26.3177 9.15219C26.7566 8.80437 27.1104 8.37951 27.3569 7.90419C27.6033 7.42886 27.7372 6.91329 27.75 6.38973C27.769 5.81697 27.6565 5.24678 27.4195 4.71419C27.1825 4.18159 26.8259 3.69783 26.3717 3.29258C25.9174 2.88734 25.3752 2.56917 24.7781 2.35762C24.181 2.14606 23.5417 2.04558 22.8995 2.06235C22.3123 2.07363 21.7339 2.19291 21.2007 2.41272C20.6675 2.63254 20.1909 2.94815 19.8008 3.33981C19.2609 3.89784 18.8221 4.5276 18.5 5.20637C18.1779 4.5276 17.7391 3.89784 17.1992 3.33981C16.8091 2.94815 16.3325 2.63254 15.7993 2.41272C15.2661 2.19291 14.6877 2.07363 14.1005 2.06235C13.4583 2.04558 12.819 2.14606 12.2219 2.35762C11.6248 2.56917 11.0825 2.88734 10.6283 3.29258C10.1741 3.69783 9.81752 4.18159 9.5805 4.71419C9.34348 5.24678 9.23101 5.81697 9.25 6.38973C9.26285 6.91329 9.39668 7.42886 9.64313 7.90419C9.88958 8.37951 10.2434 8.80437 10.6823 9.15219C10.7372 9.19473 10.795 9.23598 10.8514 9.2811H5.78125C5.16794 9.2811 4.57974 9.4984 4.14607 9.88519C3.71239 10.272 3.46875 10.7966 3.46875 11.3436V15.4686C3.46875 16.0156 3.71239 16.5402 4.14607 16.927C4.57974 17.3138 5.16794 17.5311 5.78125 17.5311V25.7811C5.78125 26.3281 6.02489 26.8527 6.45857 27.2395C6.89224 27.6263 7.48044 27.8436 8.09375 27.8436H28.9062C29.5196 27.8436 30.1078 27.6263 30.5414 27.2395C30.9751 26.8527 31.2188 26.3281 31.2188 25.7811V17.5311C31.8321 17.5311 32.4203 17.3138 32.8539 16.927C33.2876 16.5402 33.5312 16.0156 33.5312 15.4686V11.3436C33.5312 10.7966 33.2876 10.272 32.8539 9.88519C32.4203 9.4984 31.8321 9.2811 31.2188 9.2811ZM21.5352 4.70621C21.7182 4.5259 21.9411 4.38129 22.1898 4.28147C22.4386 4.18164 22.7077 4.12876 22.9805 4.12614H23.0513C23.3709 4.12792 23.687 4.18659 23.9809 4.2987C24.2748 4.41082 24.5407 4.57413 24.7629 4.77907C24.9851 4.984 25.1593 5.22643 25.2751 5.49216C25.391 5.75789 25.4462 6.04156 25.4375 6.32657C25.4346 6.56981 25.3753 6.80988 25.2633 7.03171C25.1514 7.25355 24.9893 7.45235 24.7871 7.61563C23.4155 8.69844 21.1391 9.08 19.7285 9.21407C19.902 7.84895 20.3789 5.86508 21.5352 4.70621ZM12.2721 4.75262C12.7201 4.35313 13.3268 4.12752 13.9603 4.12485H14.0311C14.3038 4.12747 14.573 4.18035 14.8217 4.28018C15.0704 4.38 15.2933 4.52461 15.4764 4.70492C16.689 5.92696 17.1168 7.95336 17.2671 9.20633C15.8623 9.07742 13.5903 8.69071 12.2201 7.60918C12.0179 7.4459 11.8558 7.2471 11.7439 7.02527C11.632 6.80344 11.5727 6.56336 11.5697 6.32012C11.5608 6.03038 11.6179 5.74204 11.7376 5.47259C11.8574 5.20314 12.0373 4.9582 12.2664 4.75262H12.2721ZM5.78125 11.3436H17.3438V15.4686H5.78125V11.3436ZM8.09375 17.5311H17.3438V25.7811H8.09375V17.5311ZM28.9062 25.7811H19.6562V17.5311H28.9062V25.7811ZM31.2188 15.4686H19.6562V11.3436H31.2188V15.4686Z" fill="black"/>
</svg>
